<?xml version="1.0" encoding="utf-8"?>
<!-- Generator: Adobe Illustrator 25.0.1, SVG Export Plug-In . SVG Version: 6.00 Build 0)  -->
<svg version="1.1" id="Layer_1" xmlns="http://www.w3.org/2000/svg" xmlns:xlink="http://www.w3.org/1999/xlink" x="0px" y="0px"
	 viewBox="0 0 1417.3 1016.9" style="enable-background:new 0 0 1417.3 1016.9;" xml:space="preserve">
<style type="text/css">
	.st0{fill:#181EA9;}
</style>
<path class="st0" d="M523.7,277.4c-51,0-92.4,41.5-92.4,92.4s41.5,92.4,92.4,92.4c51,0,92.4-41.5,92.4-92.4S574.6,277.4,523.7,277.4
	 M523.7,431.4c-34,0-61.6-27.6-61.6-61.6s27.7-61.6,61.6-61.6c34,0,61.6,27.6,61.6,61.6C585.3,403.8,557.7,431.4,523.7,431.4
	 M677.8,457.6h30.8V184.9h-30.8V457.6z M1016.7,282v175.6h30.8V312.8h61.6v144.8h30.8V312.8h61.6v144.8h30.8V282H1016.7z M375.2,250
	l-44.5,44.5c-15.1-10.8-33.6-17.1-53.5-17.1c-51,0-92.4,41.5-92.4,92.4c0,45.7,33.4,83.8,77,91.1v33.4c-43.7,7.4-77,45.4-77,91.1
	c0,51,41.5,92.4,92.4,92.4c51,0,92.4-41.5,92.4-92.4c0-45.7-33.4-83.8-77-91.1v-33.4c43.7-7.4,77-45.4,77-91.1
	c0-19.9-6.4-38.4-17.1-53.5l44.5-44.5L375.2,250z M338.8,585.5c0,34-27.7,61.6-61.6,61.6c-34,0-61.6-27.7-61.6-61.6
	c0-34,27.6-61.6,61.6-61.6C311.1,523.9,338.8,551.5,338.8,585.5 M277.1,431.4c-34,0-61.6-27.6-61.6-61.6s27.6-61.6,61.6-61.6
	c34,0,61.6,27.6,61.6,61.6C338.8,403.8,311.1,431.4,277.1,431.4 M864.2,277.4c-26.2,0-50,9.6-66.9,27
	c-16.5,16.9-25.5,40.2-25.5,65.4c0,25.4,8.8,48.6,24.9,65.4c17,17.7,40.3,27.1,67.6,27.1c29.3,0,59.6-14.2,75.5-35.4L915,408.3
	c-10.2,13.6-31.1,23.1-50.8,23.1c-32,0-54.9-18.7-60.4-47.8h149.7v-15.4c0-24.5-8.7-47.2-24.4-63.9
	C912.7,286.9,889.6,277.4,864.2,277.4 M804.5,352.9c6.6-27,29.3-44.7,59.6-44.7c29.2,0,51,17.7,56.9,44.7H804.5z M585.1,738.3
	c-0.5,2.4-1.7,4.2-3.4,5.4c-1.7,1.2-4.2,1.7-7.2,1.7c-4,0-7-1.1-9.2-3.4c-2.2-2.3-3.3-5.5-3.3-9.6c0-4.1,1.1-7.3,3.2-9.6
	c2.2-2.3,5.1-3.4,9-3.4c2.8,0,5,0.5,6.6,1.6c1.6,1.1,2.8,2.8,3.6,5.2l13.3-1.5c-1.3-5.4-3.9-9.4-7.8-12c-3.9-2.7-9.1-4-15.6-4
	c-5.4,0-10.1,1-14,3c-3.9,2-6.9,4.8-8.9,8.3c-2.1,3.6-3.1,7.7-3.1,12.4c0,4.9,1.1,9.2,3.2,12.8c2.1,3.6,5.1,6.3,9,8.2
	c3.9,1.9,8.5,2.8,13.8,2.8c7.1,0,12.8-1.6,17.1-4.7c4.3-3.1,6.7-7.5,7.3-13.1L585.1,738.3L585.1,738.3z M645.1,738.3
	c0,5.5-1.9,9.8-5.6,13c-3.7,3.2-8.8,4.7-15.2,4.7s-11.4-1.5-15-4.6c-3.5-3.1-5.3-7.3-5.3-12.9c0-5.5,1.9-9.9,5.6-13
	c3.7-3.2,8.8-4.7,15.2-4.7c6.4,0,11.4,1.5,15,4.6C643.3,728.5,645.1,732.8,645.1,738.3 M632.4,738.4c0-2.7-0.7-4.8-2-6.2
	c-1.3-1.4-3.3-2.1-5.9-2.1c-2.5,0-4.5,0.7-5.8,2.1c-1.4,1.4-2.1,3.5-2.1,6.3c0,2.7,0.7,4.8,2,6.2c1.3,1.4,3.3,2.1,5.9,2.1
	c2.5,0,4.5-0.7,5.8-2.1C631.7,743.2,632.4,741.1,632.4,738.4 M713.6,755v-21.6c0-4-1.1-7-3.3-9.3s-5.2-3.3-9.1-3.3
	c-5.4,0-9.8,2-13.1,5.9c-1-1.9-2.4-3.4-4.2-4.4c-1.9-1-4.1-1.5-6.7-1.5c-4.8,0-8.8,1.9-12.1,5.6v-4.6h-12.3V755h12.5V737
	c0-1.7,0.6-3.2,1.9-4.4c0.7-0.7,1.4-1.3,2.3-1.6c0.9-0.4,1.8-0.6,2.7-0.6c1.7,0,2.9,0.4,3.6,1.3c0.7,0.8,1.1,2.2,1.1,4V755h12.5
	v-18.5c0-1.5,0.6-2.9,1.9-4.2c1.5-1.4,3.1-2.1,5-2.1c1.7,0,2.9,0.4,3.6,1.3c0.7,0.9,1.1,2.2,1.1,4V755H713.6L713.6,755z
	 M722.7,767.3v-45.4H735v4.5c3-3.7,7.3-5.5,12.8-5.5c3,0,5.8,0.7,8.2,2.1c2.4,1.4,4.3,3.4,5.7,6c1.4,2.6,2.1,5.6,2.1,9.1
	c0,3.5-0.7,6.6-2.1,9.3s-3.3,4.9-5.9,6.4c-2.6,1.6-5.6,2.3-9.1,2.3c-4.9,0-8.7-1.6-11.4-4.7v15.9L722.7,767.3L722.7,767.3z
	 M735.1,739c0,2.4,0.7,4.3,2.1,5.7c1.4,1.4,3.4,2.1,5.8,2.1c2.6,0,4.5-0.7,5.9-2.1c1.4-1.4,2.1-3.5,2.1-6.3c0-2.7-0.7-4.7-2-6.1
	c-1.3-1.4-3.3-2.1-5.8-2.1c-2.4,0-4.4,0.8-6,2.3c-1.4,1.4-2.1,3.2-2.1,5.3L735.1,739L735.1,739z M809.2,755v-33.2h-12.5v17.9
	c0,0.8-0.2,1.7-0.6,2.5c-0.4,0.8-0.9,1.5-1.6,2.1c-1.7,1.5-3.5,2.2-5.5,2.2c-1.8,0-3.2-0.4-4-1.3c-0.9-0.9-1.3-2.3-1.3-4.2v-19.2
	h-12.5v21.6c0,4,1.1,7.1,3.4,9.3c2.3,2.2,5.5,3.4,9.6,3.4c5,0,9.2-1.9,12.8-5.6v4.6L809.2,755L809.2,755z M844.2,745.6
	c-2,0.6-3.7,0.9-5.1,0.9c-1.6,0-2.8-0.3-3.6-1s-1.1-1.8-1.1-3.3v-11.2h9.9v-9.1h-9.9v-8.7h-12.5v8.7h-6.3v9.1h6.3V743
	c0,4.5,1.1,7.7,3.2,9.7c2.1,2,5.6,3,10.3,3c3.7,0,7.1-0.5,10.3-1.6L844.2,745.6z M852,709.5h12.6v8.2H852V709.5z M852,721.8h12.5
	V755H852V721.8z M912.4,755v-21.6c0-4-1.2-7.1-3.5-9.3c-2.3-2.2-5.6-3.3-9.8-3.3c-5.2,0-9.5,1.9-13,5.6v-4.6h-12.3V755h12.5v-17.9
	c0-1.7,0.7-3.2,2.1-4.5c0.8-0.7,1.6-1.3,2.7-1.7c1-0.4,2-0.6,3.1-0.6c1.9,0,3.4,0.4,4.3,1.3c0.9,0.9,1.4,2.3,1.4,4.2V755L912.4,755
	L912.4,755z M948.4,748.7c-3,3.3-7.1,5-12.5,5c-3.1,0-5.8-0.7-8.2-2c-2.4-1.3-4.3-3.2-5.7-5.6c-1.4-2.4-2.1-5.3-2.1-8.5
	c0-3.2,0.7-6.1,2.1-8.6c1.4-2.5,3.4-4.5,6-6c2.6-1.5,5.6-2.2,9.1-2.2c2.6,0,4.9,0.4,6.8,1.2c1.9,0.8,3.5,2,4.9,3.6v-3.8h12.3V750
	c0,6.2-1.6,10.7-4.9,13.6c-3.3,2.9-8.3,4.4-15.2,4.4c-6,0-10.6-1-13.8-2.9c-3.2-1.9-5-4.9-5.5-8.8h12.1c0.3,1.2,1.1,2,2.2,2.6
	c1.1,0.5,2.8,0.8,5,0.8c2.6,0,4.5-0.6,5.8-1.9c1.2-1.3,1.9-3.2,1.9-5.9L948.4,748.7L948.4,748.7z M948.5,737c0-1.1-0.2-2-0.5-2.8
	c-0.3-0.8-0.9-1.6-1.7-2.4c-1.3-1.3-3.2-1.9-5.8-1.9c-2.5,0-4.5,0.6-5.9,1.9c-1.4,1.3-2.1,3.1-2.1,5.5c0,2.4,0.7,4.2,2,5.5
	c1.3,1.3,3.3,2,5.8,2c2.4,0,4.3-0.7,5.9-2.1c1.5-1.3,2.2-2.9,2.2-4.9L948.5,737L948.5,737z M988.9,755v-45.1h22.4
	c6.7,0,11.8,1.3,15.1,3.9c3.3,2.6,5,6.5,5,11.7c0,5.3-1.7,9.2-5.2,11.8s-8.7,3.9-15.8,3.9h-8.7v14L988.9,755L988.9,755z
	 M1010.3,731.1c2.9,0,4.9-0.5,6.2-1.4c1.3-0.9,1.9-2.4,1.9-4.4c0-1.9-0.6-3.3-1.9-4.2c-1.3-0.9-3.3-1.3-6.1-1.3h-8.6v11.3
	L1010.3,731.1L1010.3,731.1z M1077.2,738.3c0,5.5-1.9,9.8-5.6,13c-3.7,3.2-8.8,4.7-15.2,4.7s-11.4-1.5-15-4.6
	c-3.5-3.1-5.3-7.3-5.3-12.9c0-5.5,1.9-9.9,5.6-13c3.7-3.2,8.8-4.7,15.2-4.7c6.4,0,11.4,1.5,15,4.6
	C1075.5,728.5,1077.2,732.8,1077.2,738.3 M1064.6,738.4c0-2.7-0.7-4.8-2-6.2c-1.3-1.4-3.3-2.1-5.9-2.1c-2.5,0-4.5,0.7-5.8,2.1
	c-1.4,1.4-2.1,3.5-2.1,6.3c0,2.7,0.7,4.8,2,6.2c1.3,1.4,3.3,2.1,5.9,2.1c2.5,0,4.5-0.7,5.8-2.1
	C1063.9,743.2,1064.6,741.1,1064.6,738.4 M1129.6,755l11.6-33.2h-11.9l-6.1,20.3l-7-20h-10.1l-6.9,20.3l-6.2-20.5h-12.4l11.6,33.2
	h12l6.8-19.3l6.8,19.3H1129.6z M1155.7,741.4c0.2,2.1,1,3.6,2.4,4.7c1.4,1.1,3.4,1.6,5.8,1.6c4,0,6.4-1.1,7.3-3.3h11.6
	c-1.7,7.8-8.1,11.7-19.2,11.7c-6.3,0-11.1-1.5-14.6-4.5c-3.5-3-5.2-7.2-5.2-12.7c0-3.5,0.8-6.6,2.4-9.3c1.6-2.7,3.9-4.8,6.9-6.4
	c3-1.5,6.6-2.3,10.7-2.3c6.1,0,10.9,1.5,14.2,4.5c3.4,3,5.1,7.3,5.1,12.8v3.2L1155.7,741.4L1155.7,741.4z M1171.6,734.7
	c-0.2-3.8-2.8-5.7-7.8-5.7c-2.1,0-3.8,0.5-5.3,1.6c-1.5,1.1-2.3,2.4-2.6,4.1H1171.6z M1203.5,755v-17.1c0-0.9,0.2-1.7,0.6-2.6
	c0.4-0.8,1-1.6,1.8-2.2c1.8-1.4,4.3-2.1,7.3-2.1c1.3,0,2.7,0.1,4.1,0.4l1.4-9.7c-1.3-0.3-2.6-0.4-3.9-0.4c-4.7,0-8.6,1.7-11.6,5.2
	v-4.7H1191V755L1203.5,755L1203.5,755z M1220.6,755h11.8v-12.5h-11.8V755z M1013.8,798.1c-0.8-4.5-3-7.9-6.5-10.1
	c-3.6-2.2-8.6-3.3-15.1-3.3c-7,0-12.5,1.2-16.4,3.7c-4,2.4-5.9,5.8-5.9,10.2c0,4,1.4,7.2,4.3,9.5c2.9,2.3,7.4,3.9,13.6,4.9l8,1.2
	c2.2,0.3,3.8,0.8,4.7,1.4c0.9,0.6,1.4,1.4,1.4,2.5c0,1.4-0.8,2.5-2.5,3.2c-1.6,0.8-4,1.1-7,1.1c-3.2,0-5.7-0.5-7.4-1.5
	c-1.7-1-2.7-2.6-3.2-4.7h-13.3c0.5,5.4,2.7,9.4,6.7,12c3.9,2.7,9.7,4,17.2,4c7.5,0,13.2-1.2,17-3.7c3.8-2.4,5.8-6,5.8-10.8
	c0-4-1.3-7-3.9-9.3c-2.6-2.2-6.8-3.8-12.7-4.7l-9.7-1.6c-2.3-0.4-3.9-0.8-4.7-1.4c-0.8-0.5-1.2-1.4-1.2-2.5c0-1.2,0.7-2.1,2.2-2.8
	c1.5-0.6,3.7-0.9,6.6-0.9c2.6,0,4.6,0.4,6.1,1.2c1.5,0.8,2.6,2.1,3.3,3.8L1013.8,798.1z M1060.8,830.9v-21.6c0-4-1.2-7.1-3.5-9.3
	c-2.3-2.2-5.6-3.3-9.8-3.3c-5.1,0-9.3,1.8-12.8,5.4v-16.3h-12.5v45.1h12.5V813c0-1.7,0.7-3.2,2.1-4.5c0.8-0.7,1.6-1.3,2.7-1.7
	c1-0.4,2-0.6,3.1-0.6c1.9,0,3.4,0.4,4.3,1.3c0.9,0.9,1.4,2.3,1.4,4.2v19.2H1060.8L1060.8,830.9z M1094.8,830.9v-4.1
	c-1.8,1.8-3.7,3.1-5.8,3.9c-2.1,0.8-4.5,1.2-7.2,1.2c-4.5,0-7.9-0.9-10.3-2.6c-2.4-1.7-3.6-4.3-3.6-7.6c0-3.6,1.5-6.3,4.6-8.1
	c3.1-1.8,7.9-2.8,14.5-3l7.3-0.2v-1.5c0-1.3-0.5-2.4-1.6-3.1s-2.5-1.1-4.5-1.1c-1.9,0-3.5,0.3-4.8,0.8c-1.2,0.5-2,1.3-2.3,2.3
	L1070,807c0.8-3.5,2.7-6.1,5.8-7.8c3.1-1.7,7.3-2.5,12.7-2.5c11.6,0,17.4,4.5,17.4,13.5v20.7L1094.8,830.9L1094.8,830.9z
	 M1094.3,816.8l-6.6,0.2c-2.9,0.1-5.1,0.4-6.3,1c-1.3,0.6-1.9,1.5-1.9,2.8c0,2,1.9,3,5.8,3c1.4,0,2.7-0.2,3.9-0.5
	c1.2-0.3,2.2-0.8,2.9-1.5c1.4-1.2,2.1-2.5,2.1-4V816.8z M1127.4,830.9v-17.1c0-0.9,0.2-1.7,0.6-2.6c0.4-0.8,1-1.6,1.8-2.2
	c1.8-1.4,4.3-2.1,7.3-2.1c1.3,0,2.7,0.1,4.1,0.4l1.4-9.7c-1.3-0.3-2.6-0.4-3.9-0.4c-4.7,0-8.6,1.8-11.6,5.2v-4.7h-12.3v33.2
	L1127.4,830.9L1127.4,830.9z M1157.5,817.2c0.2,2.1,1,3.6,2.4,4.7c1.4,1.1,3.4,1.6,5.8,1.6c4,0,6.4-1.1,7.3-3.3h11.6
	c-1.7,7.8-8.1,11.7-19.2,11.7c-6.3,0-11.1-1.5-14.6-4.5c-3.5-3-5.2-7.2-5.2-12.7c0-3.5,0.8-6.6,2.4-9.3c1.6-2.7,3.9-4.8,6.9-6.4
	c3-1.5,6.6-2.3,10.7-2.3c6.1,0,10.9,1.5,14.2,4.5c3.4,3,5.1,7.3,5.1,12.8v3.2L1157.5,817.2L1157.5,817.2z M1173.4,810.6
	c-0.2-3.8-2.8-5.7-7.8-5.7c-2.1,0-3.8,0.5-5.3,1.6c-1.5,1.1-2.3,2.4-2.6,4.1H1173.4z M1220,830.9v-4.5c-3,3.7-7.3,5.5-12.8,5.5
	c-3.1,0-5.8-0.7-8.2-2.1c-2.4-1.4-4.3-3.4-5.7-6c-1.4-2.6-2.1-5.6-2.1-9.1c0-3.5,0.7-6.6,2.1-9.3c1.4-2.7,3.4-4.9,5.9-6.4
	c2.6-1.6,5.6-2.3,9.1-2.3c4.9,0,8.7,1.6,11.4,4.7v-15.6h12.5v45.1L1220,830.9L1220,830.9z M1219.8,813.8c0-2.4-0.7-4.3-2.1-5.7
	c-1.4-1.4-3.4-2.1-5.8-2.1c-2.6,0-4.5,0.7-5.9,2.1c-1.4,1.4-2.1,3.5-2.1,6.3c0,2.7,0.7,4.7,2,6.1c1.3,1.4,3.3,2.1,5.8,2.1
	c2.4,0,4.4-0.8,6-2.3c1.4-1.4,2.1-3.2,2.1-5.3V813.8z"/>
</svg>
