<?xml version="1.0" encoding="utf-8"?>
<!-- Generator: Adobe Illustrator 25.0.1, SVG Export Plug-In . SVG Version: 6.00 Build 0)  -->
<svg version="1.1" id="isotype" xmlns="http://www.w3.org/2000/svg" xmlns:xlink="http://www.w3.org/1999/xlink" x="0px" y="0px"
	 viewBox="0 0 256 256" style="enable-background:new 0 0 256 256;" xml:space="preserve">
<style type="text/css">
	.st0{fill:#FFFFFF;}
</style>
<path class="st0" d="M168.4,25.6l-21.3,21.3c-7.2-5.2-16.1-8.2-25.6-8.2c-24.4,0-44.2,19.8-44.2,44.2c0,21.9,16,40.1,36.9,43.6v16
	c-20.9,3.5-36.9,21.7-36.9,43.6c0,24.4,19.8,44.2,44.2,44.2s44.2-19.8,44.2-44.2c0-21.9-16-40.1-36.9-43.6v-16
	c20.9-3.5,36.9-21.7,36.9-43.6c0-9.5-3-18.4-8.2-25.6L178.8,36L168.4,25.6z M150.9,186.2c0,16.3-13.2,29.5-29.5,29.5
	c-16.3,0-29.5-13.2-29.5-29.5c0-16.3,13.2-29.5,29.5-29.5C137.7,156.7,150.9,169.9,150.9,186.2 M121.4,112.4
	c-16.3,0-29.5-13.2-29.5-29.5c0-16.3,13.2-29.5,29.5-29.5c16.3,0,29.5,13.2,29.5,29.5C150.9,99.2,137.7,112.4,121.4,112.4"/>
</svg>
